<svg width="218" height="20" viewBox="0 0 218 20" fill="none" xmlns="http://www.w3.org/2000/svg">
<path d="M0.757812 4.05664C0.863281 1.8418 2.04102 0.699219 4.29102 0.628906H13.0625C15.3477 0.699219 16.5195 1.87109 16.5781 4.14453V6.72852H13.0625V4.12695H4.27344V16.4844H13.0625V12.9688H16.5781V16.502C16.5195 18.7168 15.3418 19.8828 13.0449 20H4.27344C2.03516 19.9297 0.863281 18.7578 0.757812 16.4844V4.05664ZM23.6797 0.628906V8.60938H32.4688V0.628906H35.9844V20H32.4688V12.125H23.6797V20H20.1641V0.628906H23.6797ZM51.8047 11.1406V4.17969H43.0156V11.1406H51.8047ZM43.0156 14.6562V20H39.5V4.17969C39.582 1.91797 40.748 0.746094 42.998 0.664062H51.8047C54.0664 0.722656 55.2383 1.90039 55.3203 4.19727V20H51.8047V14.6562H43.0156ZM58.8359 20V0.628906H62.334L71.1406 13.8125V0.628906H74.6562V20H71.123L62.3516 6.71094V20H58.8359ZM78.1719 0.628906H90.459C92.7207 0.746094 93.8984 1.91211 93.9922 4.12695V16.4844C93.9336 18.7461 92.7617 19.918 90.4766 20H78.1719V0.628906ZM90.4766 4.14453H81.6875V16.4844H90.4766V4.14453ZM109.812 11.2109V4.14453H101.023V11.2109H109.812ZM101.023 14.7266V20H97.5078V0.628906H109.777C112.039 0.734375 113.223 1.91797 113.328 4.17969V11.1758C113.223 13.4023 112.051 14.5859 109.812 14.7266L113.363 20H109.496L105.945 14.7266H101.023ZM129.148 11.1406V4.17969H120.359V11.1406H129.148ZM120.359 14.6562V20H116.844V4.17969C116.926 1.91797 118.092 0.746094 120.342 0.664062H129.148C131.41 0.722656 132.582 1.90039 132.664 4.19727V20H129.148V14.6562H120.359ZM136.18 4.16211C136.262 1.88867 137.434 0.710938 139.695 0.628906H148.52C150.781 0.710938 151.941 1.88867 152 4.16211V5.90234H148.484V4.14453H139.695V16.4844H148.484V12.125H144.125V8.60938H152V16.4844C151.883 18.6992 150.723 19.8711 148.52 20H139.695C137.457 19.8828 136.285 18.7168 136.18 16.502V4.16211ZM167.82 11.1406V4.17969H159.031V11.1406H167.82ZM159.031 14.6562V20H155.516V4.17969C155.598 1.91797 156.764 0.746094 159.014 0.664062H167.82C170.082 0.722656 171.254 1.90039 171.336 4.19727V20H167.82V14.6562H159.031ZM174.852 0.628906H187.139C189.4 0.746094 190.578 1.91211 190.672 4.12695V16.4844C190.613 18.7461 189.441 19.918 187.156 20H174.852V0.628906ZM187.156 4.14453H178.367V16.4844H187.156V4.14453ZM197.703 0.628906V8.60938H206.492V0.628906H210.008V20H206.492V12.125H197.703V20H194.188V0.628906H197.703ZM213.523 0.699219H217.039V20H213.523V0.699219Z" fill="#055D59"/>
</svg>
