<svg width="66" height="66" viewBox="0 0 66 66" fill="none" xmlns="http://www.w3.org/2000/svg">
<circle cx="33" cy="33" r="33" fill="#D9D9D9"/>
<rect x="23.3004" y="6" width="18.7387" height="5.03267" fill="#055D59"/>
<path d="M47.7677 33.3584C45.0265 29.1182 42.1996 17.9214 41.1288 12.853H24.4247C24.2105 18.2497 20.0523 28.7719 18 33.3584C30.9029 47.3857 30.1814 55.7683 30.9488 61.2293C32.1955 61.4511 34.8571 61.3578 34.8571 61.2293C34.1611 45.5424 47.7141 33.3584 47.7677 33.3584Z" fill="#055D59"/>
<rect x="32.0272" y="33.7332" width="1.71325" height="27.6261" fill="white"/>
<circle cx="32.8609" cy="63.4474" r="1.55263" fill="#055D59"/>
<path d="M34.1704 26L35.2 27.4386H33.2566V38L31.637 36.7772V35.1828C30.6653 36.0699 29.6897 36.4535 28.7103 36.3337C27.7386 36.2138 26.9866 35.8501 26.4545 35.2428C25.9224 34.6354 25.637 33.968 25.5985 33.2408C25.5599 32.5055 25.8298 31.7662 26.4082 31.023H24.8003L23.5856 29.4046H29.9943L31.128 31.023H28.8028C27.7617 31.8462 27.2141 32.7852 27.1602 33.8402C27.1139 34.8871 27.5573 35.3506 28.4905 35.2308C29.4236 35.1109 30.4725 34.3516 31.637 32.953V27.4386H22.7411L21.7 26H34.1704Z" fill="white"/>
<path d="M31.7296 26L30.7 27.4386H32.6434V38L34.263 36.7772V35.1828C35.2347 36.0699 36.2103 36.4535 37.1897 36.3337C38.1614 36.2138 38.9134 35.8501 39.4455 35.2428C39.9776 34.6354 40.263 33.968 40.3015 33.2408C40.3401 32.5055 40.0702 31.7662 39.4918 31.023H41.0997L42.3144 29.4046H35.9057L34.772 31.023H37.0972C38.1383 31.8462 38.6859 32.7852 38.7398 33.8402C38.7861 34.8871 38.3427 35.3506 37.4095 35.2308C36.4763 35.1109 35.4275 34.3516 34.263 32.953V27.4386H43.1589L44.2 26H31.7296Z" fill="white"/>
</svg>
